<svg width="368" height="241" viewBox="0 0 368 241" fill="none" xmlns="http://www.w3.org/2000/svg">
<g id="Group 193">
<rect id="Rectangle 9" width="368" height="241" fill="#E0F0FF"/>
<g id="Group 13">
<g id="Group 12">
<path id="Union" d="M17 11V31H24V18H37V11H17Z" fill="#88B5FF"/>
<path id="Union_2" d="M352 11V31H345V18H332V11H352Z" fill="#88B5FF"/>
<path id="Union_3" d="M17 230L37 230L37 223L24 223L24 210L17 210L17 230Z" fill="#88B5FF"/>
<path id="Union_4" d="M352 230L332 230L332 223L345 223L345 210L352 210L352 230Z" fill="#88B5FF"/>
</g>
<rect id="Rectangle 10" x="24" y="18" width="321" height="205" fill="#F4F9FF"/>
</g>
<g id="Group 14">
<g id="&#228;&#186;&#186;&#229;&#131;&#143;">
<path id="Subtract" fill-rule="evenodd" clip-rule="evenodd" d="M250 123.011H237.284C237.284 123.011 215.211 122.209 199.97 134.297C183.677 147.219 187.356 162 187.356 162H250V123.011Z" fill="#4E75FA"/>
<path id="Subtract_2" fill-rule="evenodd" clip-rule="evenodd" d="M250 123.011H262.716C262.716 123.011 284.789 122.209 300.03 134.297C316.323 147.219 312.644 162 312.644 162H250V123.011Z" fill="#4E75FA"/>
<path id="Vector 12" d="M246.571 151.625C246.408 148.61 245 144.043 245 144.043L247.095 140H250.762L254.429 144.043C254.429 144.043 253.312 148.639 253.381 151.625C253.477 155.794 256 162 256 162H245C245 162 246.793 155.714 246.571 151.625Z" fill="#484C80"/>
<path id="Subtract_3" d="M250 135.673L238.185 123.011H237.284C237.284 123.011 233.747 122.883 228.527 123.504L242.577 151L250 145.543V135.673Z" fill="white"/>
<path id="Subtract_4" d="M250 135.673L261.815 123.011H262.716C262.716 123.011 266.253 122.883 271.473 123.504L257.423 151L250 145.543V135.673Z" fill="white"/>
<path id="Subtract_5" fill-rule="evenodd" clip-rule="evenodd" d="M237 102C237 102 237.295 109.323 237 114C236.777 117.529 236 123 236 123L250 137L251.021 136.081L264.91 123.108C264.569 121.617 263.364 116.223 263 113C262.496 108.537 263 101.5 263 101.5L237 102Z" fill="#FFDBD0"/>
<g id="&#232;&#132;&#150;&#229;&#173;&#144;">
<path id="&#233;&#152;&#180;&#229;&#189;&#177;" fill-rule="evenodd" clip-rule="evenodd" d="M237.05 103.499C237.119 105.888 237.212 110.63 237 114C236.933 115.053 236.817 116.279 236.688 117.481C237.971 117.346 245.527 116.505 250 115C255.227 113.241 262.556 108.642 262.777 108.503C262.764 106.39 262.844 104.333 262.911 103.002L237.05 103.499Z" fill="#FFC5B4"/>
</g>
<g id="&#229;&#164;&#180;">
<ellipse id="Ellipse 6" cx="271.481" cy="88.8874" rx="6.59856" ry="8.79808" transform="rotate(10.9035 271.481 88.8874)" fill="#FFDACF"/>
<ellipse id="Ellipse 7" cx="6.59856" cy="8.79808" rx="6.59856" ry="8.79808" transform="matrix(-0.981947 0.189156 0.189156 0.981947 228.297 79)" fill="#FFDACF"/>
<circle id="Ellipse 5" cx="248.338" cy="88" r="23" fill="#FFDCD1"/>
<path id="Vector 1" d="M231.314 78.038C226.814 82.4358 226.814 96.538 226.814 96.538C226.814 96.538 226.205 91.1514 224.814 88.038C223.109 84.2229 219.814 84.5383 218.314 79.538C216.813 74.5377 216.314 68.9384 222.314 63.538C224.392 61.6677 229.314 61.038 229.314 61.038C229.314 61.038 235.301 49.2477 250.314 50.038C269.314 51.0383 272.314 65.0385 278.814 71.038C279.906 72.0466 282.314 71.538 282.314 71.538C282.314 71.538 278.314 80.0084 260.314 79.538C250.314 79.2767 251.314 73.038 241.814 73.038C236.814 73.038 234.562 74.8637 231.314 78.038Z" fill="#1B1B1B"/>
</g>
<path id="Intersect" fill-rule="evenodd" clip-rule="evenodd" d="M200.726 133.712C200.472 133.904 200.22 134.099 199.97 134.297C199.666 134.538 199.37 134.779 199.08 135.021C199.42 135.938 199.866 137.174 200.339 138.577C201.349 141.574 202.462 145.274 202.935 148.217C203.356 150.831 203.497 154.255 203.531 157.059C203.548 158.454 203.538 159.683 203.523 160.562C203.516 161.002 203.508 161.354 203.502 161.595C203.499 161.716 203.496 161.809 203.494 161.872L203.492 161.943L203.491 161.96L203.491 161.964L203.491 161.965L203.491 161.965L204.49 162L205.491 162L205.493 161.933C205.495 161.868 205.498 161.772 205.501 161.648C205.508 161.401 205.516 161.042 205.523 160.595C205.538 159.701 205.548 158.453 205.531 157.035C205.497 154.214 205.355 150.667 204.91 147.899C204.409 144.784 203.251 140.954 202.234 137.938C201.723 136.422 201.243 135.098 200.891 134.152C200.832 133.995 200.777 133.848 200.726 133.712Z" fill="#3C65F2"/>
<path id="Intersect_2" fill-rule="evenodd" clip-rule="evenodd" d="M299.274 133.712C299.528 133.904 299.78 134.099 300.03 134.297C300.334 134.538 300.63 134.779 300.92 135.021C300.58 135.938 300.134 137.174 299.661 138.577C298.651 141.574 297.538 145.274 297.065 148.217C296.644 150.831 296.503 154.255 296.469 157.059C296.452 158.454 296.462 159.683 296.477 160.562C296.484 161.002 296.492 161.354 296.498 161.595C296.501 161.716 296.504 161.809 296.506 161.872L296.508 161.943L296.509 161.96L296.509 161.964L296.509 161.965L296.509 161.965L295.51 162L294.509 162L294.507 161.933C294.505 161.868 294.502 161.772 294.499 161.648C294.492 161.401 294.484 161.042 294.477 160.595C294.462 159.701 294.452 158.453 294.469 157.035C294.503 154.214 294.645 150.667 295.09 147.899C295.591 144.784 296.749 140.954 297.766 137.938C298.277 136.422 298.757 135.098 299.109 134.152C299.168 133.995 299.223 133.848 299.274 133.712Z" fill="#3C65F2"/>
</g>
<rect id="Rectangle 13" x="52" y="50" width="90" height="12" fill="#E0F0FF"/>
<rect id="Rectangle 14" x="52" y="71" width="44" height="12" fill="#E0F0FF"/>
<rect id="Rectangle 17" x="52" y="119" width="87" height="12" fill="#E0F0FF"/>
<rect id="Rectangle 15" x="52" y="150" width="112" height="12" fill="#E0F0FF"/>
<rect id="Rectangle 16" x="52" y="179" width="265" height="12" fill="#E0F0FF"/>
</g>
</g>
</svg>
