<svg width="368" height="241" viewBox="0 0 368 241" fill="none" xmlns="http://www.w3.org/2000/svg">
<g id="Group 194">
<rect id="Rectangle 9" width="368" height="241" fill="#E0F0FF"/>
<g id="Group 13">
<g id="Group 12">
<path id="Union" d="M17 11V31H24V18H37V11H17Z" fill="#88B5FF"/>
<path id="Union_2" d="M352 11V31H345V18H332V11H352Z" fill="#88B5FF"/>
<path id="Union_3" d="M17 230L37 230L37 223L24 223L24 210L17 210L17 230Z" fill="#88B5FF"/>
<path id="Union_4" d="M352 230L332 230L332 223L345 223L345 210L352 210L352 230Z" fill="#88B5FF"/>
</g>
<rect id="Rectangle 10" x="24" y="18" width="321" height="205" fill="#F4F9FF"/>
</g>
<g id="Group 19">
<g id="Group 18">
<g id="Group 15">
<path id="Vector 14" d="M70 150.5V128L86.5 139.5V156C86.5 156 81.1897 156.919 78 156C74.3569 154.95 70 150.5 70 150.5Z" fill="#F7D9DA"/>
<path id="Vector 15" d="M140.5 150.5V128L124 139.5V156C124 156 129.31 156.919 132.5 156C136.143 154.95 140.5 150.5 140.5 150.5Z" fill="#F7D9DA"/>
</g>
<circle id="Ellipse 8" cx="105" cy="96" r="51" fill="#F8D4D3"/>
<circle id="Ellipse 9" cx="105" cy="96" r="40" fill="#FEA59E"/>
<g id="Group 17">
<path id="Star 1" d="M105 73L107.021 79.2188H113.56L108.269 83.0623L110.29 89.2812L105 85.4377L99.7099 89.2812L101.731 83.0623L96.4405 79.2188H102.979L105 73Z" fill="#F4F6F0"/>
<g id="Group 16">
<path id="Star 2" d="M83.9771 84.0228L85.4246 87.3547L89.0407 87.0076L86.3192 89.4139L87.7667 92.7458L84.6372 90.901L81.9158 93.3073L82.7031 89.7609L79.5737 87.9162L83.1898 87.5692L83.9771 84.0228Z" fill="#F4F6F0"/>
<path id="Star 3" d="M99.6052 93.2443L99.6058 96.877L103.061 97.999L99.6062 99.1222L99.6068 102.755L97.4711 99.8163L94.0164 100.94L96.1511 98.0002L94.0153 95.0617L97.4704 96.1836L99.6052 93.2443Z" fill="#F4F6F0"/>
<path id="Star 4" d="M111.214 92.5324L113.342 95.477L116.8 94.3638L114.657 97.2969L116.784 100.242L113.332 99.1097L111.189 102.043L111.199 98.4102L107.747 97.2784L111.205 96.1651L111.214 92.5324Z" fill="#F4F6F0"/>
<path id="Star 5" d="M126.85 83.0156L127.695 86.5485L131.317 86.8359L128.218 88.732L129.064 92.2648L126.303 89.9038L123.204 91.7999L124.597 88.4446L121.836 86.0836L125.457 86.3709L126.85 83.0156Z" fill="#F4F6F0"/>
</g>
</g>
<path id="Vector 13" d="M142.5 121.5H68V114.5H88L90.5 108H118L121 114.5H142.5V121.5Z" fill="#F7D6D6" stroke="#F8D4D3"/>
<path id="Intersect" fill-rule="evenodd" clip-rule="evenodd" d="M103.568 126.221L103.928 127.103C103.976 127.094 104.024 127.084 104.072 127.075V126.119C104.536 126.041 105.013 126 105.5 126C105.892 126 106.278 126.027 106.656 126.078V127.052C106.808 127.077 106.959 127.106 107.108 127.14L107.489 126.234C108.344 126.439 109.148 126.773 109.88 127.214L109.488 128.146C109.554 128.189 109.619 128.232 109.683 128.277L110.404 127.556C111.111 128.057 111.739 128.663 112.263 129.351L111.524 130.09C111.617 130.221 111.707 130.355 111.792 130.492L112.77 130.094C113.214 130.824 113.551 131.627 113.759 132.481L112.753 132.891C112.766 132.951 112.778 133.011 112.789 133.072H113.881C113.959 133.536 114 134.013 114 134.5C114 134.892 113.973 135.278 113.922 135.656H112.812C112.784 135.826 112.751 135.994 112.711 136.16L113.74 136.593C113.525 137.444 113.181 138.244 112.73 138.971L111.689 138.533C111.655 138.583 111.622 138.634 111.587 138.683L112.387 139.483C111.879 140.184 111.266 140.805 110.572 141.322L109.774 140.524C109.677 140.593 109.579 140.659 109.48 140.723L109.906 141.77C109.176 142.214 108.373 142.551 107.519 142.759L107.098 141.726C106.952 141.759 106.805 141.788 106.656 141.812V142.922C106.278 142.973 105.892 143 105.5 143C105.013 143 104.536 142.959 104.072 142.881V141.789C103.971 141.77 103.872 141.75 103.773 141.727L103.352 142.726C102.503 142.505 101.705 142.156 100.981 141.7L101.39 140.727C101.288 140.662 101.189 140.594 101.09 140.524L100.351 141.263C99.6626 140.739 99.0567 140.111 98.5563 139.404L99.2767 138.683C99.2232 138.606 99.1711 138.528 99.1204 138.448L98.1839 138.83C97.7479 138.095 97.4195 137.288 97.2205 136.432L98.13 136.061C98.1003 135.928 98.0741 135.792 98.0517 135.656H97.0779C97.0265 135.278 97 134.892 97 134.5C97 134.013 97.0409 133.536 97.1194 133.072H98.0753C98.0906 132.989 98.1071 132.907 98.1251 132.825L97.2475 132.456C97.458 131.603 97.7973 130.801 98.2435 130.071L99.1082 130.435C99.1824 130.318 99.2598 130.203 99.3402 130.09L98.6781 129.428C99.1952 128.734 99.8158 128.121 100.517 127.613L101.181 128.277C101.293 128.199 101.408 128.124 101.524 128.053L101.17 127.184C101.905 126.748 102.712 126.42 103.568 126.221Z" fill="#F7D9DA"/>
</g>
<rect id="Rectangle 18" x="178" y="54" width="141" height="17" fill="#E0F0FF"/>
<rect id="Rectangle 19" x="178" y="90" width="141" height="17" fill="#E0F0FF"/>
<rect id="Rectangle 21" x="50" y="184" width="269" height="12" fill="#E0F0FF"/>
<rect id="Rectangle 22" x="163" y="161" width="156" height="12" fill="#E0F0FF"/>
</g>
</g>
</svg>
