<svg width="38" height="38" viewBox="0 0 38 38" fill="none" xmlns="http://www.w3.org/2000/svg">
<g id="Subtract">
<path d="M12.791 19.675C13.2543 19.2412 13.8653 18.9999 14.5 19H16.5L16.664 19.005C17.2973 19.0466 17.8912 19.3276 18.325 19.791C18.7588 20.2543 19.0001 20.8653 19 21.5V22L18.993 22.117C18.9629 22.3701 18.8373 22.6021 18.6418 22.7657C18.4464 22.9293 18.1958 23.0121 17.9414 22.9972C17.687 22.9822 17.4478 22.8707 17.2728 22.6854C17.0979 22.5 17.0003 22.2549 17 22V21.5L16.992 21.41C16.9709 21.2949 16.9102 21.1908 16.8203 21.1159C16.7304 21.041 16.617 21 16.5 21H14.5L14.41 21.008C14.2949 21.0291 14.1908 21.0898 14.1159 21.1797C14.041 21.2696 14 21.383 14 21.5V22L13.993 22.117C13.9629 22.3701 13.8373 22.6021 13.6418 22.7657C13.4464 22.9293 13.1958 23.0121 12.9414 22.9972C12.687 22.9822 12.4478 22.8707 12.2728 22.6854C12.0979 22.5 12.0003 22.2549 12 22V21.5L12.005 21.336C12.0466 20.7027 12.3276 20.1088 12.791 19.675Z" fill="currentColor"/>
<path d="M20.883 20.007L21 20H25L25.117 20.007C25.36 20.0359 25.5841 20.153 25.7466 20.336C25.9091 20.519 25.9989 20.7552 25.9989 21C25.9989 21.2448 25.9091 21.481 25.7466 21.664C25.5841 21.847 25.36 21.9641 25.117 21.993L25 22H21L20.883 21.993C20.64 21.9641 20.4159 21.847 20.2534 21.664C20.0909 21.481 20.0011 21.2448 20.0011 21C20.0011 20.7552 20.0909 20.519 20.2534 20.336C20.4159 20.153 20.64 20.0359 20.883 20.007Z" fill="currentColor"/>
<path d="M21 17H23L23.117 17.007C23.3701 17.0371 23.6021 17.1627 23.7657 17.3582C23.9293 17.5536 24.0121 17.8042 23.9972 18.0586C23.9822 18.313 23.8707 18.5522 23.6854 18.7272C23.5 18.9021 23.2549 18.9997 23 19H21L20.883 18.993C20.6299 18.9629 20.3979 18.8373 20.2343 18.6418C20.0707 18.4464 19.9879 18.1958 20.0028 17.9414C20.0178 17.687 20.1293 17.4478 20.3146 17.2728C20.5 17.0979 20.7451 17.0003 21 17Z" fill="currentColor"/>
<path d="M14.2626 15.5126C14.5908 15.1844 15.0359 15 15.5 15C15.9641 15 16.4092 15.1844 16.7374 15.5126C17.0656 15.8408 17.25 16.2859 17.25 16.75C17.25 17.2141 17.0656 17.6592 16.7374 17.9874C16.4092 18.3156 15.9641 18.5 15.5 18.5C15.0359 18.5 14.5908 18.3156 14.2626 17.9874C13.9344 17.6592 13.75 17.2141 13.75 16.75C13.75 16.2859 13.9344 15.8408 14.2626 15.5126Z" fill="currentColor"/>
<path fill-rule="evenodd" clip-rule="evenodd" d="M19 38C29.4934 38 38 29.4934 38 19C38 8.50659 29.4934 0 19 0C8.50659 0 0 8.50659 0 19C0 29.4934 8.50659 38 19 38ZM28.4142 11.5858C28.0391 11.2107 27.5304 11 27 11H11C10.4696 11 9.96086 11.2107 9.58578 11.5858C9.21071 11.9609 9 12.4696 9 13V25C9 25.5304 9.21071 26.0391 9.58578 26.4142C9.96086 26.7893 10.4696 27 11 27H27C27.5304 27 28.0391 26.7893 28.4142 26.4142C28.7893 26.0391 29 25.5304 29 25V13C29 12.4696 28.7893 11.9609 28.4142 11.5858Z" fill="currentColor"/>
</g>
</svg>
