<svg width="38" height="38" viewBox="0 0 38 38" fill="none" xmlns="http://www.w3.org/2000/svg">
<path id="Subtract" fill-rule="evenodd" clip-rule="evenodd" d="M19 38C29.4934 38 38 29.4934 38 19C38 8.50659 29.4934 0 19 0C8.50659 0 0 8.50659 0 19C0 29.4934 8.50659 38 19 38ZM28.9852 13.1716C28.9852 12.7738 28.8272 12.3924 28.546 12.1111C28.4067 11.9717 28.2413 11.8611 28.0593 11.7857C27.8772 11.7102 27.6821 11.6714 27.485 11.6714C27.288 11.6714 27.0928 11.7102 26.9108 11.7857C26.7288 11.8611 26.5634 11.9717 26.424 12.1111L16.171 22.3651L11.575 17.7691C11.4366 17.6258 11.2711 17.5115 11.0881 17.4329C10.9052 17.3543 10.7083 17.3129 10.5092 17.3112C10.3099 17.3095 10.1124 17.3474 9.9281 17.4228C9.74377 17.4983 9.57629 17.6096 9.43542 17.7505C9.29462 17.8913 9.18323 18.0588 9.10779 18.2431C9.03235 18.4275 8.99445 18.625 8.99615 18.8242C8.99786 19.0233 9.03925 19.2202 9.11786 19.4032C9.19647 19.5862 9.31079 19.7517 9.45404 19.8901L15.04 25.4751C15.1886 25.6237 15.365 25.7416 15.5591 25.822C15.7533 25.9024 15.9614 25.9438 16.1715 25.9438C16.3817 25.9438 16.5898 25.9024 16.7839 25.822C16.978 25.7416 17.1544 25.6237 17.303 25.4751L28.546 14.2321C28.8272 13.9508 28.9852 13.5693 28.9852 13.1716Z" fill="currentColor"/>
</svg>
