<svg width="467" height="331" viewBox="0 0 467 331" fill="none" xmlns="http://www.w3.org/2000/svg">
<g id="&#229;&#174;&#140;&#230;&#136;&#144;&#239;&#188;&#136;&#230;&#143;&#146;&#231;&#148;&#187;&#239;&#188;&#137;">
<g id="Group 26">
<path id="Vector 18" d="M70.7958 289.14L155.273 292.857L393.498 289.14C393.498 289.14 430.33 284.747 430.33 260.755C430.33 241.643 415.368 233.553 414.448 214.462C413.378 192.229 435.485 181.375 430.33 159.721C423.601 131.452 386.938 139.431 370.52 115.455C357.41 96.3092 364.525 78.1609 350.922 59.3623C343.755 49.4591 338.38 44.8474 328.958 37.0604C295.149 9.12121 265.25 -6.01953 222.179 2.25583C190.885 8.26831 178.595 26.4444 152.57 44.8322C135.82 56.6666 119.46 58.2476 111.007 76.9335C102.728 95.234 119.271 108.995 113.71 128.296C105.392 157.168 65.6914 153.076 58.969 182.361C56.1642 194.579 61.4391 202.172 58.969 214.462C53.0231 244.047 -2.10302 246.134 9.63442 273.934C16.0545 289.14 70.7958 289.14 70.7958 289.14Z" fill="#EAF9FF"/>
<g id="Group 24">
<path id="Vector 20" d="M27.3489 219.371C27.3489 219.371 61.7028 228.096 81.4117 238.819C105.206 251.765 135.202 282.613 135.202 282.613" stroke="#C3ECFE" stroke-width="3"/>
<path id="Vector 19" d="M49.3248 220.704C52.6665 223.363 56.6725 230.263 56.6725 230.263C56.6725 230.263 54.3114 220.012 53.0088 216.212C51.7885 212.652 48.5718 207.659 48.5718 207.659C48.5718 207.659 39.9491 196.206 36.0671 200.326C32.5049 204.107 40.6473 212.815 40.6473 212.815C40.6473 212.815 43.7553 216.271 49.3248 220.704Z" fill="#C3ECFE"/>
<path id="Vector 21" d="M66.1948 225.5C68.8259 228.865 71.1165 236.507 71.1165 236.507C71.1165 236.507 71.2055 225.988 70.8227 221.989C70.464 218.243 68.4975 212.638 68.4975 212.638C68.4975 212.638 62.7761 199.494 58.042 202.598C53.6979 205.446 59.5909 215.809 59.5909 215.809C59.5909 215.809 61.8095 219.893 66.1948 225.5Z" fill="#C3ECFE"/>
<path id="Vector 22" d="M90.3031 232.815C92.2493 236.616 93.0507 244.555 93.0507 244.555C93.0507 244.555 95.1307 234.242 95.5122 230.244C95.8697 226.498 95.0004 220.622 95.0004 220.622C95.0004 220.622 91.8725 206.631 86.6361 208.782C81.8311 210.756 85.6545 222.048 85.6545 222.048C85.6545 222.048 87.0592 226.479 90.3031 232.815Z" fill="#C3ECFE"/>
<path id="Vector 23" d="M111.346 255.353C113.515 258.44 115.19 265.287 115.19 265.287C115.19 265.287 115.745 256.01 115.588 252.465C115.442 249.144 113.961 244.109 113.961 244.109C113.961 244.109 109.509 232.253 105.191 234.777C101.229 237.093 105.959 246.503 105.959 246.503C105.959 246.503 107.731 250.207 111.346 255.353Z" fill="#C3ECFE"/>
<path id="Vector 24" d="M25.6709 221.178C29.2705 220.047 36.3027 220.527 36.3027 220.527C36.3027 220.527 27.6307 217.185 24.2049 216.26C20.9957 215.392 15.7494 215.277 15.7494 215.277C15.7494 215.277 3.10122 215.925 4.19757 220.805C5.20359 225.282 15.6045 223.628 15.6045 223.628C15.6045 223.628 19.6715 223.062 25.6709 221.178Z" fill="#C3ECFE"/>
<path id="Vector 25" d="M39.6063 228.783C42.7436 226.687 49.6277 225.173 49.6277 225.173C49.6277 225.173 40.3662 224.401 36.8184 224.474C33.4949 224.543 28.4273 225.906 28.4273 225.906C28.4273 225.906 16.4698 230.079 18.8921 234.454C21.1148 238.469 30.6328 233.961 30.6328 233.961C30.6328 233.961 34.3774 232.276 39.6063 228.783Z" fill="#C3ECFE"/>
<path id="Vector 26" d="M59.7664 235.002C62.9037 232.906 69.7879 231.392 69.7879 231.392C69.7879 231.392 60.5264 230.62 56.9786 230.693C53.655 230.762 48.5874 232.125 48.5874 232.125C48.5874 232.125 36.63 236.298 39.0522 240.673C41.2749 244.688 50.793 240.18 50.793 240.18C50.793 240.18 54.5376 238.495 59.7664 235.002Z" fill="#C3ECFE"/>
<path id="Vector 27" d="M80.3914 246.396C83.5287 244.3 90.4129 242.787 90.4129 242.787C90.4129 242.787 81.1514 242.014 77.6036 242.088C74.28 242.156 69.2124 243.519 69.2124 243.519C69.2124 243.519 57.255 247.692 59.6772 252.068C61.8999 256.083 71.418 251.575 71.418 251.575C71.418 251.575 75.1626 249.89 80.3914 246.396Z" fill="#C3ECFE"/>
<path id="Vector 28" d="M101.268 262.139C104.406 260.043 111.29 258.529 111.29 258.529C111.29 258.529 102.028 257.757 98.4805 257.83C95.157 257.899 90.0894 259.262 90.0894 259.262C90.0894 259.262 78.1319 263.435 80.5542 267.81C82.7769 271.825 92.2949 267.317 92.2949 267.317C92.2949 267.317 96.0395 265.632 101.268 262.139Z" fill="#C3ECFE"/>
</g>
<g id="Group 25">
<path id="Vector 20_2" d="M119.746 134.56C119.746 134.56 128.667 168.863 139.503 188.51C152.585 212.23 183.604 242.049 183.604 242.049" stroke="#C3ECFE" stroke-width="3"/>
<path id="Vector 19_2" d="M121.205 156.526C123.884 159.852 130.807 163.819 130.807 163.819C130.807 163.819 120.542 161.517 116.735 160.236C113.168 159.036 108.156 155.848 108.156 155.848C108.156 155.848 96.6542 147.291 100.752 143.385C104.513 139.801 113.267 147.894 113.267 147.894C113.267 147.894 116.74 150.982 121.205 156.526Z" fill="#C3ECFE"/>
<path id="Vector 21_2" d="M126.099 173.369C129.478 175.981 137.134 178.228 137.134 178.228C137.134 178.228 126.615 178.377 122.614 178.017C118.866 177.68 113.25 175.745 113.25 175.745C113.25 175.745 100.073 170.099 103.15 165.347C105.973 160.987 116.37 166.821 116.37 166.821C116.37 166.821 120.467 169.016 126.099 173.369Z" fill="#C3ECFE"/>
<path id="Vector 22_2" d="M133.55 197.435C137.363 199.359 145.306 200.115 145.306 200.115C145.306 200.115 135.006 202.254 131.009 202.659C127.265 203.037 121.384 202.202 121.384 202.202C121.384 202.202 107.376 199.154 109.497 193.905C111.444 189.089 122.757 192.848 122.757 192.848C122.757 192.848 127.196 194.227 133.55 197.435Z" fill="#C3ECFE"/>
<path id="Vector 23_2" d="M156.208 218.35C159.308 220.501 166.164 222.136 166.164 222.136C166.164 222.136 156.89 222.744 153.344 222.608C150.022 222.481 144.98 221.028 144.98 221.028C144.98 221.028 133.098 216.644 135.597 212.312C137.891 208.338 147.328 213.013 147.328 213.013C147.328 213.013 151.042 214.764 156.208 218.35Z" fill="#C3ECFE"/>
<path id="Vector 24_2" d="M121.543 132.87C120.433 136.476 120.953 143.505 120.953 143.505C120.953 143.505 117.562 134.852 116.617 131.432C115.731 128.228 115.586 122.982 115.586 122.982C115.586 122.982 116.162 110.33 121.048 111.399C125.531 112.379 123.936 122.789 123.936 122.789C123.936 122.789 123.394 126.86 121.543 132.87Z" fill="#C3ECFE"/>
<path id="Vector 25_2" d="M129.229 146.762C127.151 149.911 125.676 156.804 125.676 156.804C125.676 156.804 124.851 147.547 124.904 143.999C124.954 140.675 126.288 135.6 126.288 135.6C126.288 135.6 130.392 123.619 134.782 126.016C138.809 128.216 134.356 137.759 134.356 137.759C134.356 137.759 132.692 141.513 129.229 146.762Z" fill="#C3ECFE"/>
<path id="Vector 26_2" d="M135.563 166.885C133.485 170.035 132.01 176.927 132.01 176.927C132.01 176.927 131.185 167.67 131.238 164.122C131.288 160.798 132.622 155.723 132.622 155.723C132.622 155.723 136.726 143.742 141.116 146.139C145.143 148.339 140.69 157.882 140.69 157.882C140.69 157.882 139.026 161.637 135.563 166.885Z" fill="#C3ECFE"/>
<path id="Vector 27_2" d="M147.075 187.445C144.996 190.595 143.522 197.487 143.522 197.487C143.522 197.487 142.697 188.23 142.75 184.682C142.8 181.358 144.133 176.283 144.133 176.283C144.133 176.283 148.238 164.302 152.627 166.699C156.655 168.899 152.201 178.442 152.201 178.442C152.201 178.442 150.538 182.197 147.075 187.445Z" fill="#C3ECFE"/>
<path id="Vector 28_2" d="M162.936 208.232C160.858 211.381 159.384 218.274 159.384 218.274C159.384 218.274 158.558 209.017 158.611 205.469C158.661 202.145 159.995 197.069 159.995 197.069C159.995 197.069 164.099 185.088 168.489 187.485C172.516 189.685 168.063 199.229 168.063 199.229C168.063 199.229 166.399 202.983 162.936 208.232Z" fill="#C3ECFE"/>
</g>
<g id="Group 23">
<path id="Vector 20_3" d="M425.059 254.278C425.059 254.278 395.059 256.404 376.989 262.399C355.173 269.637 325.49 290.894 325.49 290.894" stroke="#C3ECFE" stroke-width="3"/>
<path id="Vector 19_3" d="M406.509 252.09C403.319 253.81 398.937 258.97 398.937 258.97C398.937 258.97 402.448 250.764 404.107 247.786C405.661 244.997 409.097 241.31 409.097 241.31C409.097 241.31 418.018 233.04 420.641 237.064C423.048 240.757 414.941 246.806 414.941 246.806C414.941 246.806 411.826 249.225 406.509 252.09Z" fill="#C3ECFE"/>
<path id="Vector 21_3" d="M391.698 253.562C388.996 255.977 385.935 262.015 385.935 262.015C385.935 262.015 387.441 253.217 388.361 249.935C389.223 246.861 391.707 242.475 391.707 242.475C391.707 242.475 398.459 232.357 401.947 235.661C405.147 238.692 398.669 246.461 398.669 246.461C398.669 246.461 396.203 249.539 391.698 253.562Z" fill="#C3ECFE"/>
<path id="Vector 22_3" d="M370.467 256.05C368.27 258.932 366.409 265.441 366.409 265.441C366.409 265.441 366.221 256.517 366.503 253.12C366.767 249.938 368.375 245.162 368.375 245.162C368.375 245.162 373.089 233.948 377.139 236.531C380.855 238.901 375.966 247.756 375.966 247.756C375.966 247.756 374.127 251.246 370.467 256.05Z" fill="#C3ECFE"/>
<path id="Vector 23_3" d="M349.507 271.711C347.232 273.964 344.805 279.43 344.805 279.43C344.805 279.43 345.735 271.599 346.398 268.662C347.019 265.911 349.012 261.929 349.012 261.929C349.012 261.929 354.511 252.696 357.737 255.452C360.698 257.982 355.335 265.13 355.335 265.13C355.335 265.13 353.298 267.957 349.507 271.711Z" fill="#C3ECFE"/>
<path id="Vector 24_3" d="M426.19 256.039C423.354 254.554 417.409 253.899 417.409 253.899C417.409 253.899 425.153 252.41 428.153 252.152C430.963 251.91 435.362 252.602 435.362 252.602C435.362 252.602 445.827 255.043 444.179 258.953C442.666 262.541 434.229 259.597 434.229 259.597C434.229 259.597 430.917 258.514 426.19 256.039Z" fill="#C3ECFE"/>
<path id="Vector 25_3" d="M413.409 260.297C411.104 258.075 405.583 255.777 405.583 255.777C405.583 255.777 413.433 256.523 416.385 257.118C419.15 257.674 423.177 259.573 423.177 259.573C423.177 259.573 432.536 264.854 429.856 268.145C427.397 271.164 420.126 265.969 420.126 265.969C420.126 265.969 417.252 264 413.409 260.297Z" fill="#C3ECFE"/>
<path id="Vector 26_3" d="M395.64 262.463C393.335 260.241 387.813 257.943 387.813 257.943C387.813 257.943 395.663 258.689 398.615 259.284C401.381 259.84 405.408 261.739 405.408 261.739C405.408 261.739 414.767 267.02 412.087 270.311C409.628 273.33 402.356 268.135 402.356 268.135C402.356 268.135 399.482 266.166 395.64 262.463Z" fill="#C3ECFE"/>
<path id="Vector 27_3" d="M376.704 268.881C374.399 266.659 368.878 264.361 368.878 264.361C368.878 264.361 376.728 265.107 379.68 265.701C382.445 266.258 386.472 268.157 386.472 268.157C386.472 268.157 395.831 273.438 393.151 276.728C390.692 279.747 383.421 274.553 383.421 274.553C383.421 274.553 380.546 272.583 376.704 268.881Z" fill="#C3ECFE"/>
<path id="Vector 28_3" d="M356.906 278.892C354.6 276.67 349.079 274.372 349.079 274.372C349.079 274.372 356.929 275.118 359.881 275.712C362.646 276.269 366.674 278.168 366.674 278.168C366.674 278.168 376.033 283.449 373.353 286.739C370.893 289.758 363.622 284.564 363.622 284.564C363.622 284.564 360.748 282.595 356.906 278.892Z" fill="#C3ECFE"/>
</g>
<path id="Vector 16" d="M466.246 308.989C415.391 308.856 312.961 308.67 310.078 308.989L276.842 296.645L238 274.345C238 274.345 279.773 220.234 312.881 228.95C328.522 233.068 346.918 252.444 346.918 252.444C346.918 252.444 362.534 232.136 386.56 246.471C410.586 260.807 396.972 283.902 396.972 283.902C396.972 283.902 402.782 283.761 404.58 286.291C406.294 288.705 404.58 293.857 404.58 293.857C404.58 293.857 417.794 289.079 424.201 289.079C430.608 289.079 433.406 292.141 433.01 296.645C432.757 299.526 428.606 302.618 428.606 302.618C428.606 302.618 442.397 298.973 451.03 300.627C456.278 301.632 458.638 301.423 463.844 305.405C469.049 309.387 466.246 308.989 466.246 308.989Z" fill="#CCF3FF"/>
<path id="Vector 17" d="M18.7865 303.988C71.8622 303.849 178.766 303.654 181.775 303.988L216.462 291.035L257 267.634C257 267.634 213.403 210.85 178.849 219.997C162.525 224.319 143.326 244.651 143.326 244.651C143.326 244.651 127.027 223.34 101.952 238.383C76.8772 253.427 91.0864 277.663 91.0864 277.663C91.0864 277.663 85.0223 277.514 83.146 280.17C81.3567 282.702 83.146 288.11 83.146 288.11C83.146 288.11 69.3547 283.095 62.668 283.095C55.9813 283.095 53.0605 286.309 53.4738 291.035C53.7382 294.059 58.0709 297.303 58.0709 297.303C58.0709 297.303 43.6777 293.477 34.6674 295.213C29.1904 296.268 26.727 296.049 21.2941 300.228C15.8611 304.406 18.7865 303.988 18.7865 303.988Z" fill="#CCF3FF"/>
<ellipse id="Ellipse 12" cx="233.5" cy="312" rx="108.5" ry="3" fill="#A5D9EE"/>
<g id="Group 22">
<path id="Vector 20_4" d="M365.569 170.331C365.569 170.331 347.529 203.061 331.345 220.317C311.807 241.15 272.354 263.547 272.354 263.547" stroke="#C3ECFE" stroke-width="3"/>
<path id="Vector 19_4" d="M358.365 192.397C354.762 195.099 346.656 197.351 346.656 197.351C346.656 197.351 357.744 197.669 361.967 197.351C365.923 197.053 371.874 195.099 371.874 195.099C371.874 195.099 385.853 189.348 382.682 184.291C379.772 179.651 368.722 185.642 368.722 185.642C368.722 185.642 364.369 187.894 358.365 192.397Z" fill="#C3ECFE"/>
<path id="Vector 21_4" d="M348.982 208.334C344.849 210.123 336.442 210.427 336.442 210.427C336.442 210.427 347.151 213.316 351.333 213.989C355.25 214.62 361.492 214.105 361.492 214.105C361.492 214.105 376.425 211.764 374.517 206.108C372.767 200.918 360.626 204.174 360.626 204.174C360.626 204.174 355.869 205.351 348.982 208.334Z" fill="#C3ECFE"/>
<path id="Vector 22_4" d="M335.106 230.985C330.71 231.959 322.397 230.665 322.397 230.665C322.397 230.665 332.365 235.531 336.343 236.984C340.07 238.345 346.297 239.021 346.297 239.021C346.297 239.021 361.403 239.552 360.601 233.637C359.866 228.209 347.328 229.106 347.328 229.106C347.328 229.106 342.434 229.361 335.106 230.985Z" fill="#C3ECFE"/>
<path id="Vector 23_4" d="M306.513 246.46C302.786 247.852 295.355 247.739 295.355 247.739C295.355 247.739 304.673 250.773 308.331 251.556C311.759 252.29 317.289 252.118 317.289 252.118C317.289 252.118 330.57 250.73 329.143 245.654C327.834 240.996 316.975 243.318 316.975 243.318C316.975 243.318 312.725 244.141 306.513 246.46Z" fill="#C3ECFE"/>
<path id="Vector 24_4" d="M364.174 168.137C364.37 172.111 362.01 179.158 362.01 179.158C362.01 179.158 367.726 171.199 369.582 167.95C371.32 164.906 372.833 159.584 372.833 159.584C372.833 159.584 375.537 146.507 370.267 146.328C365.431 146.163 364.352 157.215 364.352 157.215C364.352 157.215 363.847 161.515 364.174 168.137Z" fill="#C3ECFE"/>
<path id="Vector 25_4" d="M352.706 180.333C354.01 184.091 353.723 191.518 353.723 191.518C353.723 191.518 356.975 182.274 357.844 178.635C358.658 175.225 358.616 169.693 358.616 169.693C358.616 169.693 357.539 156.383 352.43 157.69C347.743 158.89 349.81 169.8 349.81 169.8C349.81 169.8 350.533 174.069 352.706 180.333Z" fill="#C3ECFE"/>
<path id="Vector 26_4" d="M340.999 199.246C342.303 203.005 342.016 210.431 342.016 210.431C342.016 210.431 345.268 201.188 346.137 197.548C346.951 194.139 346.909 188.606 346.909 188.606C346.909 188.606 345.832 175.296 340.723 176.603C336.036 177.803 338.103 188.713 338.103 188.713C338.103 188.713 338.826 192.982 340.999 199.246Z" fill="#C3ECFE"/>
<path id="Vector 27_4" d="M323.886 217.259C325.19 221.018 324.903 228.444 324.903 228.444C324.903 228.444 328.155 219.2 329.024 215.561C329.838 212.152 329.795 206.619 329.795 206.619C329.795 206.619 328.718 193.309 323.61 194.616C318.922 195.816 320.99 206.726 320.99 206.726C320.99 206.726 321.713 210.995 323.886 217.259Z" fill="#C3ECFE"/>
<path id="Vector 28_4" d="M302.271 234.371C303.575 238.13 303.288 245.556 303.288 245.556C303.288 245.556 306.539 236.312 307.408 232.673C308.222 229.264 308.18 223.731 308.18 223.731C308.18 223.731 307.103 210.421 301.995 211.728C297.307 212.928 299.374 223.838 299.374 223.838C299.374 223.838 300.097 228.107 302.271 234.371Z" fill="#C3ECFE"/>
</g>
<rect id="Rectangle 24" x="145.301" y="59.2849" width="178.415" height="253.431" rx="16" fill="#3E89CC"/>
<rect id="Rectangle 26" x="154.762" y="68.0704" width="160.168" height="235.86" fill="#C3ECFE"/>
<rect id="Rectangle 25" x="160.844" y="76.1803" width="147.328" height="219.64" fill="white"/>
<path id="Subtract" fill-rule="evenodd" clip-rule="evenodd" d="M232.12 36C236.887 36 240.83 39.5246 241.486 44.1098H241.582V55.5987H282.131C286.61 55.5987 290.24 59.2295 290.24 63.7085V73.8457H174V63.7085C174 59.2295 177.631 55.5987 182.11 55.5987H222.659V44.1098H222.755C223.41 39.5246 227.354 36 232.12 36ZM231.782 50.868C234.582 50.868 236.851 48.5987 236.851 45.7994C236.851 43 234.582 40.7307 231.782 40.7307C228.983 40.7307 226.714 43 226.714 45.7994C226.714 48.5987 228.983 50.868 231.782 50.868Z" fill="#408FFF"/>
</g>
<g id="check_circle_fill" clip-path="url(#clip0_237_3273)">
<g id="Group">
<path id="Vector" d="M233.001 141.333C256.013 141.333 274.667 159.988 274.667 183C274.667 206.013 256.013 224.667 233.001 224.667C209.988 224.667 191.334 206.013 191.334 183C191.334 159.988 209.988 141.333 233.001 141.333ZM247.73 167.921L227.105 188.546L218.271 179.708C217.885 179.321 217.425 179.014 216.92 178.804C216.414 178.595 215.872 178.487 215.325 178.487C214.22 178.486 213.16 178.925 212.378 179.706C211.596 180.488 211.156 181.547 211.156 182.653C211.156 183.758 211.594 184.818 212.376 185.6L223.867 197.092C224.293 197.518 224.798 197.855 225.355 198.086C225.911 198.316 226.507 198.435 227.109 198.435C227.711 198.435 228.307 198.316 228.863 198.086C229.42 197.855 229.925 197.518 230.351 197.092L253.626 173.817C254.407 173.035 254.847 171.974 254.847 170.869C254.847 169.763 254.407 168.703 253.626 167.921C252.844 167.139 251.783 166.7 250.678 166.7C249.572 166.7 248.512 167.139 247.73 167.921Z" fill="#00DE66"/>
</g>
</g>
</g>
<defs>
<clipPath id="clip0_237_3273">
<rect width="100" height="100" fill="white" transform="translate(183 133)"/>
</clipPath>
</defs>
</svg>
