<svg width="368" height="241" viewBox="0 0 368 241" fill="none" xmlns="http://www.w3.org/2000/svg">
<g id="Group 35">
<rect id="Rectangle 9" width="368" height="241" fill="#E0F0FF"/>
<g id="Group 12">
<path id="Union" d="M17 11V31H24V18H37V11H17Z" fill="#88B5FF"/>
<path id="Union_2" d="M352 11V31H345V18H332V11H352Z" fill="#88B5FF"/>
<path id="Union_3" d="M17 230L37 230L37 223L24 223L24 210L17 210L17 230Z" fill="#88B5FF"/>
<path id="Union_4" d="M352 230L332 230L332 223L345 223L345 210L352 210L352 230Z" fill="#88B5FF"/>
</g>
<rect id="Rectangle 10" x="24" y="18" width="321" height="205" fill="#F4F9FF"/>
<g id="Group 34">
<g id="Group 18">
<g id="Group 15">
<path id="Vector 14" d="M158.234 123.676V106.471L170.852 115.265V127.882C170.852 127.882 166.791 128.585 164.352 127.882C161.566 127.08 158.234 123.676 158.234 123.676Z" fill="#F7D9DA"/>
<path id="Vector 15" d="M212.146 123.676V106.47L199.529 115.264V127.882C199.529 127.882 203.59 128.585 206.029 127.882C208.815 127.079 212.146 123.676 212.146 123.676Z" fill="#F7D9DA"/>
</g>
<circle id="Ellipse 8" cx="185" cy="82" r="39" fill="#F8D4D3"/>
<circle id="Ellipse 9" cx="185" cy="82" r="30.5882" fill="#FEA59E"/>
<g id="Group 17">
<path id="Star 1" d="M185 64.4118L186.545 69.1674H191.545L187.5 72.1065L189.045 76.8621L185 73.923L180.954 76.8621L182.499 72.1065L178.454 69.1674H183.454L185 64.4118Z" fill="#F4F6F0"/>
<g id="Group 16">
<path id="Star 2" d="M168.923 72.8411L170.03 75.389L172.795 75.1237L170.714 76.9637L171.821 79.5116L169.428 78.101L167.347 79.941L167.949 77.2291L165.556 75.8185L168.321 75.5531L168.923 72.8411Z" fill="#F4F6F0"/>
<path id="Star 3" d="M180.873 79.8929L180.873 82.6709L183.516 83.5289L180.874 84.3878L180.874 87.1657L179.241 84.9186L176.599 85.7775L178.232 83.5298L176.598 81.2827L179.24 82.1406L180.873 79.8929Z" fill="#F4F6F0"/>
<path id="Star 4" d="M189.751 79.3483L191.378 81.6001L194.022 80.7487L192.383 82.9917L194.01 85.2435L191.37 84.378L189.731 86.621L189.739 83.8431L187.099 82.9775L189.743 82.1262L189.751 79.3483Z" fill="#F4F6F0"/>
<path id="Star 5" d="M201.708 72.0709L202.355 74.7725L205.124 74.9922L202.755 76.4422L203.401 79.1438L201.29 77.3383L198.921 78.7883L199.985 76.2225L197.874 74.417L200.643 74.6367L201.708 72.0709Z" fill="#F4F6F0"/>
</g>
</g>
<path id="Vector 13" d="M213.676 101.5H156.705V96.147H171.999L173.911 91.1765H194.94L197.234 96.147H213.676V101.5Z" fill="#F7D6D6" stroke="#F8D4D3"/>
<path id="Intersect" fill-rule="evenodd" clip-rule="evenodd" d="M183.905 105.11L184.181 105.785C184.217 105.778 184.254 105.77 184.291 105.764V105.032C184.646 104.972 185.011 104.941 185.383 104.941C185.683 104.941 185.978 104.961 186.267 105.001V105.746C186.383 105.765 186.498 105.787 186.612 105.813L186.904 105.12C187.557 105.277 188.172 105.532 188.733 105.87L188.433 106.582C188.483 106.615 188.533 106.648 188.582 106.682L189.133 106.131C189.674 106.514 190.154 106.977 190.555 107.504L189.989 108.069C190.061 108.169 190.129 108.272 190.194 108.377L190.942 108.072C191.282 108.631 191.539 109.245 191.698 109.897L190.929 110.211C190.939 110.257 190.948 110.303 190.957 110.349H191.792C191.852 110.704 191.883 111.069 191.883 111.441C191.883 111.741 191.863 112.036 191.823 112.325H190.975C190.953 112.455 190.928 112.584 190.898 112.711L191.684 113.042C191.519 113.693 191.256 114.305 190.912 114.861L190.115 114.525C190.09 114.564 190.064 114.602 190.038 114.64L190.649 115.252C190.261 115.788 189.792 116.263 189.261 116.658L188.651 116.048C188.577 116.1 188.502 116.151 188.426 116.2L188.752 117.001C188.194 117.34 187.579 117.598 186.927 117.757L186.605 116.967C186.493 116.992 186.381 117.014 186.267 117.033V117.882C185.978 117.921 185.683 117.941 185.383 117.941C185.011 117.941 184.646 117.91 184.291 117.85V117.015C184.214 117.001 184.138 116.985 184.062 116.968L183.741 117.732C183.091 117.563 182.481 117.296 181.927 116.947L182.24 116.203C182.162 116.153 182.086 116.101 182.011 116.048L181.445 116.613C180.919 116.212 180.456 115.732 180.073 115.191L180.624 114.64C180.583 114.581 180.543 114.521 180.504 114.46L179.788 114.752C179.455 114.19 179.204 113.573 179.052 112.919L179.747 112.635C179.724 112.533 179.704 112.43 179.687 112.325H178.942C178.903 112.036 178.883 111.741 178.883 111.441C178.883 111.069 178.914 110.704 178.974 110.349H179.705C179.717 110.286 179.73 110.223 179.743 110.16L179.072 109.878C179.233 109.226 179.492 108.613 179.834 108.055L180.495 108.333C180.552 108.243 180.611 108.156 180.672 108.069L180.166 107.563C180.561 107.032 181.036 106.563 181.572 106.175L182.08 106.682C182.166 106.623 182.253 106.566 182.343 106.511L182.072 105.846C182.634 105.513 183.251 105.262 183.905 105.11Z" fill="#F7D9DA"/>
</g>
<path id="&#232;&#144;&#165; &#228;&#184;&#154; &#230;&#137;&#167; &#231;&#133;&#167;" d="M137.664 161.168H126.504V163.136H137.664V161.168ZM123.768 166.136V158.696H140.52V166.136H137.664V165.464H126.504V166.136H123.768ZM135.552 155.96V154.52H128.448V155.96H135.552ZM125.784 152.624H138.384V157.832H125.784V152.624ZM121.92 154.472V149.528H142.296V154.472H139.536V151.688H124.536V154.472H121.92ZM137.808 145.352H142.656V147.896H137.808V149.048H134.952V147.896H128.928V149.048H126.12V147.896H121.392V145.352H126.12V143.696H128.928V145.352H134.952V143.696H137.808V145.352ZM162.195 157.568L159.339 158.576C158.811 156.272 157.563 152.432 156.459 149.48L159.075 148.712C160.203 151.52 161.595 155.288 162.195 157.568ZM171.411 162.128H177.627V164.984H156.171V162.128H162.363V143.984H165.315V162.128H168.459V143.984H171.411V157.208C172.611 154.928 174.051 151.52 174.843 148.784L177.411 150.008C176.355 153.032 174.843 156.416 173.595 158.72L171.411 157.616V162.128ZM206.958 150.992H204.462C204.366 152.624 204.222 154.184 204.006 155.6C205.086 156.248 206.094 156.896 206.862 157.424C206.862 155.528 206.91 153.368 206.958 150.992ZM204.558 148.424H209.886C209.478 157.64 209.334 163.424 210.27 163.424C210.606 163.424 210.774 162.512 210.87 160.376C211.422 160.88 212.478 161.456 213.15 161.672C212.862 165.152 212.046 166.112 210.15 166.112C207.678 166.112 207.006 163.28 206.886 158.456L205.686 160.088C205.11 159.608 204.318 159.008 203.406 158.408C202.518 161.648 200.982 164.24 198.414 166.256C198.102 165.68 197.046 164.456 196.398 163.904C198.87 162.248 200.262 159.896 201.006 156.848C200.142 156.296 199.254 155.792 198.462 155.336L198.606 156.152C197.766 156.44 196.95 156.728 196.086 157.016V162.872C196.086 164.24 195.846 164.984 195.102 165.464C194.382 165.92 193.326 166.04 191.766 166.016C191.67 165.248 191.334 164.072 190.998 163.256C191.838 163.304 192.678 163.304 192.966 163.304C193.278 163.304 193.374 163.208 193.374 162.872V157.904L191.094 158.624L190.446 155.912C191.286 155.696 192.27 155.408 193.374 155.096V150.92H190.806V148.28H193.374V143.696H196.086V148.28H198.222V150.92H196.086V154.28L198.174 153.632L198.414 154.976L199.83 153.224C200.358 153.512 200.91 153.824 201.51 154.16C201.63 153.152 201.726 152.12 201.774 150.992H198.678V148.424H201.846C201.846 146.936 201.846 145.328 201.798 143.672L204.582 143.648C204.606 145.328 204.606 146.936 204.558 148.424ZM231.561 147.08H229.233V150.2H231.561V147.08ZM229.233 156.176H231.561V152.696H229.233V156.176ZM238.281 154.688V157.256H243.657V154.688H238.281ZM229.233 158.72V159.848H226.545V144.584H234.177V150.512C236.889 149.768 237.849 148.616 238.281 147.008H234.873V144.512H247.233C247.233 144.512 247.209 145.136 247.185 145.472C246.993 148.736 246.777 150.248 246.225 150.848C245.769 151.352 245.217 151.544 244.569 151.616C243.969 151.688 242.889 151.712 241.809 151.664C241.761 150.944 241.497 150.008 241.113 149.384C242.025 149.456 242.817 149.48 243.201 149.48C243.537 149.48 243.729 149.432 243.921 149.24C244.137 149.024 244.281 148.376 244.401 147.008H241.089C240.585 149.504 239.433 151.28 236.217 152.408H246.489V159.56H235.593V152.6L235.545 152.624C235.305 152.024 234.729 151.16 234.177 150.632V158.72H229.233ZM228.225 166.184L225.465 165.008C226.449 163.832 227.673 161.864 228.417 160.064L231.177 160.832C230.385 162.656 229.233 164.792 228.225 166.184ZM232.401 160.976L235.041 160.664C235.353 162.224 235.641 164.288 235.665 165.56L232.857 165.992C232.857 164.744 232.665 162.632 232.401 160.976ZM237.465 160.928L240.153 160.448C240.753 161.96 241.353 164 241.569 165.32L238.713 165.896C238.569 164.648 238.017 162.536 237.465 160.928ZM242.409 160.904L245.001 159.896C245.985 161.432 247.233 163.544 247.785 164.912L245.025 166.088C244.545 164.744 243.393 162.536 242.409 160.904Z" fill="#BFE0FF"/>
<g id="Group 33">
<rect id="Rectangle 35" x="76" y="183" width="61" height="15" fill="#E0F0FF"/>
<rect id="Rectangle 36" x="154" y="183" width="61" height="15" fill="#E0F0FF"/>
<rect id="Rectangle 37" x="232" y="183" width="61" height="15" fill="#E0F0FF"/>
</g>
</g>
</g>
</svg>
