<svg width="38" height="38" viewBox="0 0 38 38" fill="none" xmlns="http://www.w3.org/2000/svg">
<path id="Subtract" fill-rule="evenodd" clip-rule="evenodd" d="M19 38C29.4934 38 38 29.4934 38 19C38 8.50659 29.4934 0 19 0C8.50659 0 0 8.50659 0 19C0 29.4934 8.50659 38 19 38ZM14.4645 10.4645C13.5268 11.4021 13 12.6739 13 14C13 15.3261 13.5268 16.5979 14.4645 17.5355C15.4021 18.4732 16.6739 19 18 19C19.3261 19 20.5979 18.4732 21.5355 17.5355C22.4732 16.5979 23 15.3261 23 14C23 12.6739 22.4732 11.4021 21.5355 10.4645C20.5979 9.52678 19.3261 9 18 9C16.6739 9 15.4021 9.52678 14.4645 10.4645ZM18 20C15.605 20 13.425 20.694 11.822 21.672V21.671C11.021 22.161 10.338 22.736 9.844 23.361C9.358 23.977 9 24.713 9 25.5C9 26.345 9.41 27.01 10.003 27.486C10.563 27.936 11.302 28.234 12.087 28.442C13.665 28.86 15.771 29 18 29L18.685 28.995C18.8525 28.9927 19.0167 28.9484 19.1626 28.8661C19.3085 28.7838 19.4313 28.6662 19.5199 28.524C19.6085 28.3819 19.66 28.2198 19.6696 28.0525C19.6792 27.8853 19.6467 27.7184 19.575 27.567C19.207 26.79 19 25.92 19 25C18.9975 23.7969 19.3586 22.6212 20.036 21.627C20.1332 21.4842 20.1918 21.3186 20.206 21.1465C20.2202 20.9743 20.1895 20.8014 20.117 20.6446C20.0445 20.4878 19.9326 20.3524 19.7922 20.2517C19.6518 20.151 19.4878 20.0884 19.316 20.07C18.887 20.024 18.447 20 18 20ZM25.7071 21.2929C25.5196 21.1054 25.2652 21 25 21C24.7348 21 24.4804 21.1054 24.2929 21.2929C24.1054 21.4804 24 21.7348 24 22V24H22C21.7348 24 21.4804 24.1054 21.2929 24.2929C21.1054 24.4804 21 24.7348 21 25C21 25.2652 21.1054 25.5196 21.2929 25.7071C21.4804 25.8946 21.7348 26 22 26H24V28C24 28.2652 24.1054 28.5196 24.2929 28.7071C24.4804 28.8946 24.7348 29 25 29C25.2652 29 25.5196 28.8946 25.7071 28.7071C25.8946 28.5196 26 28.2652 26 28V26H28C28.2652 26 28.5196 25.8946 28.7071 25.7071C28.8946 25.5196 29 25.2652 29 25C29 24.7348 28.8946 24.4804 28.7071 24.2929C28.5196 24.1054 28.2652 24 28 24H26V22C26 21.7348 25.8946 21.4804 25.7071 21.2929Z" fill="currentColor"/>
</svg>
