<svg width="24" height="24" viewBox="0 0 24 24" fill="currentColor" xmlns="http://www.w3.org/2000/svg">
<g id="&#228;&#184;&#139;&#228;&#184;&#128;&#230;&#173;&#165;3" clip-path="url(#clip0_237_2607)">
<g id="Group">
<path id="Vector" fill-rule="evenodd" clip-rule="evenodd" d="M15.7064 11.2931C15.8938 11.4806 15.9992 11.7349 15.9992 12.0001C15.9992 12.2652 15.8938 12.5195 15.7064 12.7071L10.0494 18.3641C9.95712 18.4596 9.84678 18.5358 9.72477 18.5882C9.60277 18.6406 9.47155 18.6682 9.33877 18.6693C9.20599 18.6705 9.07431 18.6452 8.95141 18.5949C8.82852 18.5446 8.71686 18.4703 8.62297 18.3765C8.52908 18.2826 8.45483 18.1709 8.40454 18.048C8.35426 17.9251 8.32896 17.7934 8.33012 17.6607C8.33127 17.5279 8.35886 17.3967 8.41126 17.2747C8.46367 17.1526 8.53986 17.0423 8.63537 16.9501L13.5854 12.0001L8.63537 7.05006C8.45321 6.86146 8.35241 6.60885 8.35469 6.34666C8.35697 6.08446 8.46214 5.83365 8.64755 5.64824C8.83296 5.46283 9.08377 5.35766 9.34597 5.35538C9.60816 5.35311 9.86076 5.4539 10.0494 5.63606L15.7064 11.2931Z"/>
</g>
</g>
<defs>
<clipPath id="clip0_237_2607">
<rect width="24" height="24" fill="white"/>
</clipPath>
</defs>
</svg>
