<svg width="38" height="38" viewBox="0 0 38 38" fill="none" xmlns="http://www.w3.org/2000/svg">
<g id="Subtract">
<path fill-rule="evenodd" clip-rule="evenodd" d="M11 22.1V12H27V22.101L24.834 19.934C24.7179 19.8179 24.5801 19.7258 24.4284 19.6629C24.2768 19.6001 24.1142 19.5678 23.95 19.5678C23.7858 19.5678 23.6233 19.6001 23.4716 19.6629C23.3199 19.7258 23.1821 19.8179 23.066 19.934L21.828 21.172L17.763 17.106C17.6469 16.9899 17.5091 16.8978 17.3574 16.8349C17.2057 16.7721 17.0432 16.7398 16.879 16.7398C16.7148 16.7398 16.5522 16.7721 16.4006 16.8349C16.2489 16.8978 16.1111 16.9899 15.995 17.106L11 22.1ZM23.5607 14.4393C23.2794 14.158 22.8978 14 22.5 14C22.1022 14 21.7206 14.158 21.4393 14.4393C21.158 14.7206 21 15.1022 21 15.5C21 15.8978 21.158 16.2794 21.4393 16.5607C21.7206 16.842 22.1022 17 22.5 17C22.8978 17 23.2794 16.842 23.5607 16.5607C23.8419 16.2794 24 15.8978 24 15.5C24 15.1022 23.8419 14.7206 23.5607 14.4393Z" fill="currentColor"/>
<path fill-rule="evenodd" clip-rule="evenodd" d="M19 38C29.4934 38 38 29.4934 38 19C38 8.50659 29.4934 0 19 0C8.50659 0 0 8.50659 0 19C0 29.4934 8.50659 38 19 38ZM28.4142 10.5858C28.0392 10.2107 27.5304 10 27 10H11C10.4696 10 9.96085 10.2107 9.58578 10.5858C9.21072 10.9609 9 11.4696 9 12V26C9 26.5304 9.21072 27.0391 9.58578 27.4142C9.96085 27.7893 10.4696 28 11 28H27C27.5304 28 28.0392 27.7893 28.4142 27.4142C28.7893 27.0391 29 26.5304 29 26V12C29 11.4696 28.7893 10.9609 28.4142 10.5858Z" fill="currentColor"/>
</g>
</svg>
